<svg width="1500" height="1500" viewBox="0 0 1500 1500" fill="none" xmlns="http://www.w3.org/2000/svg">
<path d="M435 0H1065C1305 0 1500 195 1500 435V1065C1500 1180.37 1454.17 1291.01 1372.59 1372.59C1291.01 1454.17 1180.37 1500 1065 1500H435C195 1500 0 1305 0 1065V435C0 319.631 45.8302 208.987 127.409 127.409C208.987 45.8302 319.631 0 435 0ZM420 150C348.392 150 279.716 178.446 229.081 229.081C178.446 279.716 150 348.392 150 420V1080C150 1229.25 270.75 1350 420 1350H1080C1151.61 1350 1220.28 1321.55 1270.92 1270.92C1321.55 1220.28 1350 1151.61 1350 1080V420C1350 270.75 1229.25 150 1080 150H420ZM1143.75 262.5C1168.61 262.5 1192.46 272.377 1210.04 289.959C1227.62 307.54 1237.5 331.386 1237.5 356.25C1237.5 381.114 1227.62 404.96 1210.04 422.541C1192.46 440.123 1168.61 450 1143.75 450C1118.89 450 1095.04 440.123 1077.46 422.541C1059.88 404.96 1050 381.114 1050 356.25C1050 331.386 1059.88 307.54 1077.46 289.959C1095.04 272.377 1118.89 262.5 1143.75 262.5ZM750 375C849.456 375 944.839 414.509 1015.17 484.835C1085.49 555.161 1125 650.544 1125 750C1125 849.456 1085.49 944.839 1015.17 1015.17C944.839 1085.49 849.456 1125 750 1125C650.544 1125 555.161 1085.49 484.835 1015.17C414.509 944.839 375 849.456 375 750C375 650.544 414.509 555.161 484.835 484.835C555.161 414.509 650.544 375 750 375ZM750 525C690.326 525 633.097 548.705 590.901 590.901C548.705 633.097 525 690.326 525 750C525 809.674 548.705 866.903 590.901 909.099C633.097 951.295 690.326 975 750 975C809.674 975 866.903 951.295 909.099 909.099C951.295 866.903 975 809.674 975 750C975 690.326 951.295 633.097 909.099 590.901C866.903 548.705 809.674 525 750 525Z" fill="white"/>
</svg>
