<svg width="1500" height="1508" viewBox="0 0 1500 1508" fill="none" xmlns="http://www.w3.org/2000/svg">
<path d="M1281.41 219.351C1212.3 149.547 1129.99 94.2005 1039.27 56.541C948.55 18.8814 851.24 -0.337697 753.015 0.00449017C341.457 0.00449017 6.03016 335.432 6.03016 746.989C6.03016 878.899 40.7035 1007.04 105.528 1120.1L0 1507.54L395.729 1403.52C505.025 1463.07 627.889 1494.73 753.015 1494.73C1164.57 1494.73 1500 1159.3 1500 747.743C1500 547.994 1422.36 360.306 1281.41 219.351ZM753.015 1368.09C641.457 1368.09 532.161 1337.94 436.432 1281.41L413.819 1267.84L178.643 1329.65L241.206 1100.51L226.131 1077.14C164.152 978.168 131.242 863.766 131.156 746.989C131.156 404.778 410.05 125.884 752.261 125.884C918.09 125.884 1074.12 190.708 1190.95 308.296C1248.81 365.881 1294.65 434.376 1325.83 509.81C1357.02 585.245 1372.92 666.118 1372.61 747.743C1374.12 1089.95 1095.23 1368.09 753.015 1368.09ZM1093.72 903.773C1074.87 894.728 982.914 849.502 966.332 842.718C948.995 836.688 936.935 833.673 924.121 851.763C911.306 870.607 875.879 912.818 865.327 924.879C854.774 937.693 843.467 939.2 824.623 929.401C805.779 920.356 745.477 900.004 674.623 836.688C618.844 786.939 581.909 725.884 570.603 707.04C560.05 688.195 569.095 678.396 578.894 668.597C587.186 660.306 597.739 646.738 606.784 636.185C615.829 625.633 619.598 617.341 625.628 605.281C631.658 592.467 628.643 581.914 624.121 572.869C619.598 563.824 581.909 471.864 566.834 434.175C551.759 397.994 535.93 402.517 524.623 401.763H488.442C475.628 401.763 456.03 406.286 438.693 425.13C422.11 443.974 373.869 489.2 373.869 581.16C373.869 673.12 440.955 762.065 450 774.125C459.045 786.939 581.909 975.381 768.844 1056.03C813.316 1075.63 847.99 1086.94 875.125 1095.23C919.598 1109.55 960.301 1107.29 992.714 1102.77C1028.89 1097.49 1103.52 1057.54 1118.59 1013.82C1134.42 970.105 1134.42 933.17 1129.15 924.879C1123.87 916.587 1112.56 912.818 1093.72 903.773Z" fill="white"/>
</svg>
